<svg width="90" height="84" viewBox="0 0 90 84" fill="none" xmlns="http://www.w3.org/2000/svg">
<path opacity="0.4" fill-rule="evenodd" clip-rule="evenodd" d="M76.6088 44.928H63.2295V44.9192V38.2295H51.6079V24.8416H58.2975V12.2317C44.3585 3.69678 26.1347 4.90356 13.3937 15.8433L67.3919 69.8501C73.5395 62.697 76.6088 53.8125 76.6088 44.928ZM73.7231 35.1951V42.1472H66.7711V35.1951H73.7231ZM90.0056 31.3738H80.8762V22.2444H90.0056V31.3738ZM82.2054 42.488H77.3958V37.6787H82.2054V42.488ZM70.2427 15.301H61.1833V6.24146H70.2427V15.301ZM84.4091 15.301H78.2616V9.15356H84.4091V15.301ZM79.9231 4.05542H76.6001V0.732422H79.9231V4.05542ZM61.1745 35.5361H53.5404V27.9021H61.1745V35.5361ZM77.7369 32.7554H64.0078V19.0261H77.7369V32.7554ZM9.84341 45.2253C9.84341 60.9482 22.5843 73.6892 38.3072 73.6892C45.1805 73.6892 51.4854 71.2493 56.4087 67.1919L63.2295 74.0127C48.1712 86.9373 25.4788 86.2815 11.2163 72.0188C-3.04624 57.7563 -3.70212 35.0552 9.2225 20.0056L16.3407 27.1238C12.2832 32.0471 9.84341 38.3521 9.84341 45.2253Z" fill="#444444"/>
</svg>
