<svg width="90" height="100" viewBox="0 0 90 100" fill="none" xmlns="http://www.w3.org/2000/svg">
<path opacity="0.4" fill-rule="evenodd" clip-rule="evenodd" d="M60.8349 54.7036L44.9955 38.8643L29.1562 54.7036L44.9955 70.543L60.8349 54.7036ZM53.1871 29.4604H65.8532V42.1267H53.1871V29.4604ZM55.0768 26.2961V17.4004H63.9725V26.2961H55.0768ZM63.7318 6.86475H68.9284V12.0613H63.7318V6.86475ZM81.7906 9.46753H78.2252V9.4585V5.89307H81.7906V9.46753ZM72.8771 2.85352V0.259766H75.4709V2.85352H72.8771ZM85.6057 24.6382H80.0168V19.0496H85.6057V24.6382ZM67.9747 29.4517H78.5461V40.0229H67.9747V29.4517ZM77.1199 23.6399H69.4097V15.9297H77.1199V23.6399ZM67.9747 42.6079H77.8954L90 54.7036L44.9955 99.708L0 54.7036L44.9955 9.70801L52.4562 17.1599V27.7046H49.4969V27.7581L44.9955 23.2566L13.5486 54.7036L44.9955 86.1506L76.4425 54.7036L67.9747 46.2268V42.6079Z" fill="#444444"/>
</svg>
