<svg width="90" height="100" viewBox="0 0 90 100" fill="none" xmlns="http://www.w3.org/2000/svg">
<g opacity="0.4" clip-path="url(#clip0_4_194)">
<path d="M45.001 38.8643L60.8403 54.7037L45.001 70.543L29.1616 54.7037L45.001 38.8643ZM65.8587 29.4605H53.1925V42.1267H65.8587V29.4605ZM55.0822 17.4005V26.2962H63.9779V17.4005H55.0822ZM68.9338 6.8647H63.7372V12.0613H68.9338V6.8647ZM78.2307 9.46745H81.7961V5.89312H78.2307V9.45854V9.46745ZM72.8825 0.259766V2.85361H75.4764V0.259766H72.8825ZM80.0223 24.6383H85.6111V19.0495H80.0223V24.6383ZM78.5515 29.4516H67.9801V40.0231H78.5515V29.4516ZM69.4152 23.64H77.1254V15.9298H69.4152V23.64Z" fill="#444444"/>
<path d="M77.9008 42.6079H67.98V46.2268L76.4479 54.7036L45.0009 86.1505L13.5539 54.7036L45.0009 23.2566L49.5023 27.7579V27.7044H52.4615V17.1597L45.0009 9.70801L0.00537109 54.7036L45.0009 99.708L90.0054 54.7036L77.9008 42.6079Z" fill="#444444"/>
</g>
<defs>
<clipPath id="clip0_4_194">
<rect width="90" height="99.4483" fill="white" transform="translate(0.00537109 0.259766)"/>
</clipPath>
</defs>
</svg>
