<svg width="80" height="81" viewBox="0 0 80 81" fill="none" xmlns="http://www.w3.org/2000/svg">
<g opacity="0.4" clip-path="url(#clip0_4_130)">
<path d="M39.9985 80.9844C62.0539 80.9844 80.0029 63.0354 80.0029 40.98C80.0029 18.9246 62.0539 0.984375 39.9985 0.984375C17.9431 0.984375 -0.00585938 18.9246 -0.00585938 40.9888C-0.00585938 63.0529 17.9431 80.9931 39.9985 80.9931V80.9844ZM28.6512 29.7465C30.6738 29.7465 32.3198 31.3926 32.3198 33.4151C32.3198 35.4377 30.6738 37.0837 28.6512 37.0837C26.6287 37.0837 24.9826 35.4377 24.9826 33.4151C24.9826 31.3926 26.6287 29.7465 28.6512 29.7465ZM26.5411 14.0565V25.8153C23.214 26.7434 20.7537 29.7991 20.7537 33.4151C20.7537 37.7667 24.2997 41.3127 28.6512 41.3127C33.0028 41.3127 36.5488 37.7667 36.5488 33.4151C36.5488 29.7903 34.0972 26.7434 30.7613 25.8153V12.3141C33.677 11.3773 36.7677 10.8519 39.9898 10.8519C40.1299 10.8519 40.2699 10.8695 40.41 10.8695V42.2408H51.8799C52.808 45.5679 55.8637 48.0283 59.4797 48.0283C63.8313 48.0283 67.3773 44.4822 67.3773 40.1307C67.3773 35.7792 63.8313 32.2331 59.4797 32.2331C55.8549 32.2331 52.7992 34.6847 51.8711 38.0206H44.6302V11.2459C59.042 13.4961 70.1178 25.9554 70.1178 40.98C70.1178 44.6311 69.4349 48.1158 68.2441 51.3466H34.859C33.9309 48.0195 30.8752 45.5592 27.2591 45.5592C22.8988 45.5592 19.3615 49.1052 19.3615 53.4567C19.3615 57.8083 22.9076 61.3543 27.2591 61.3543C30.8839 61.3543 33.9309 58.9027 34.859 55.5668H66.3354C61.1871 64.8215 51.3108 71.0993 39.9985 71.0993C23.3804 71.0993 9.86171 57.5806 9.86171 40.9625C9.86171 29.1862 16.6648 18.9947 26.5411 14.039V14.0565ZM55.8199 40.1219C55.8199 38.0994 57.466 36.4533 59.4885 36.4533C61.511 36.4533 63.1571 38.0994 63.1571 40.1219C63.1571 42.1445 61.511 43.7905 59.4885 43.7905C57.466 43.7905 55.8199 42.1445 55.8199 40.1219ZM30.9277 53.4655C30.9277 55.488 29.2817 57.1341 27.2591 57.1341C25.2366 57.1341 23.5905 55.488 23.5905 53.4655C23.5905 51.4429 25.2366 49.7969 27.2591 49.7969C29.2817 49.7969 30.9277 51.4429 30.9277 53.4655Z" fill="#444444"/>
</g>
<defs>
<clipPath id="clip0_4_130">
<rect width="80" height="80" fill="white" transform="translate(-0.00585938 0.984375)"/>
</clipPath>
</defs>
</svg>
