<svg width="90" height="84" viewBox="0 0 90 84" fill="none" xmlns="http://www.w3.org/2000/svg">
<path opacity="0.4" fill-rule="evenodd" clip-rule="evenodd" d="M76.603 44.928H63.2236V44.9192V38.2295H51.602V24.8416H58.2916V12.2317C44.3527 3.69678 26.1288 4.90356 13.3878 15.8433L67.3861 69.8501C73.5336 62.697 76.603 53.8125 76.603 44.928ZM73.7172 35.1951V42.1472H66.7652V35.1951H73.7172ZM89.9998 31.3738H80.8704V22.2444H89.9998V31.3738ZM82.1995 42.488H77.39V37.6787H82.1995V42.488ZM70.2368 15.301H61.1774V6.24146H70.2368V15.301ZM84.4032 15.301H78.2557V9.15356H84.4032V15.301ZM79.9172 4.05542H76.5942V0.732422H79.9172V4.05542ZM61.1687 35.5361H53.5346V27.9021H61.1687V35.5361ZM77.731 32.7554H64.0019V19.0261H77.731V32.7554ZM9.8375 45.2253C9.8375 60.9482 22.5785 73.6892 38.3013 73.6892C45.1746 73.6892 51.4796 71.2493 56.4028 67.1919L63.2236 74.0127C48.1654 86.9373 25.4729 86.2815 11.2104 72.0188C-3.05211 57.7563 -3.70797 35.0552 9.21662 20.0056L16.3348 27.1238C12.2773 32.0471 9.8375 38.3521 9.8375 45.2253Z" fill="#444444"/>
</svg>
