<svg width="80" height="81" viewBox="0 0 80 81" fill="none" xmlns="http://www.w3.org/2000/svg">
<g opacity="0.4" clip-path="url(#clip0_4_193)">
<path d="M40.0097 80.9844C62.0651 80.9844 80.0141 63.0354 80.0141 40.98C80.0141 18.9246 62.0651 0.984375 40.0097 0.984375C17.9544 0.984375 0.00537109 18.9246 0.00537109 40.9888C0.00537109 63.0529 17.9544 80.9931 40.0097 80.9931V80.9844ZM28.6625 29.7465C30.685 29.7465 32.3311 31.3926 32.3311 33.4151C32.3311 35.4377 30.685 37.0837 28.6625 37.0837C26.6399 37.0837 24.9939 35.4377 24.9939 33.4151C24.9939 31.3926 26.6399 29.7465 28.6625 29.7465ZM26.5524 14.0565V25.8153C23.2252 26.7434 20.7649 29.7991 20.7649 33.4151C20.7649 37.7667 24.3109 41.3127 28.6625 41.3127C33.014 41.3127 36.56 37.7667 36.56 33.4151C36.56 29.7903 34.1085 26.7434 30.7726 25.8153V12.3141C33.6882 11.3773 36.7789 10.8519 40.001 10.8519C40.1411 10.8519 40.2812 10.8695 40.4213 10.8695V42.2408H51.8911C52.8192 45.5679 55.8749 48.0283 59.491 48.0283C63.8425 48.0283 67.3885 44.4822 67.3885 40.1307C67.3885 35.7792 63.8425 32.2331 59.491 32.2331C55.8662 32.2331 52.8104 34.6847 51.8824 38.0206H44.6415V11.2459C59.0532 13.4961 70.129 25.9554 70.129 40.98C70.129 44.6311 69.4461 48.1158 68.2553 51.3466H34.8702C33.9421 48.0195 30.8864 45.5592 27.2703 45.5592C22.91 45.5592 19.3728 49.1052 19.3728 53.4567C19.3728 57.8083 22.9188 61.3543 27.2703 61.3543C30.8952 61.3543 33.9421 58.9027 34.8702 55.5668H66.3466C61.1983 64.8215 51.322 71.0993 40.0097 71.0993C23.3916 71.0993 9.87294 57.5806 9.87294 40.9625C9.87294 29.1862 16.6761 18.9947 26.5524 14.039V14.0565ZM55.8311 40.1219C55.8311 38.0994 57.4772 36.4533 59.4997 36.4533C61.5223 36.4533 63.1683 38.0994 63.1683 40.1219C63.1683 42.1445 61.5223 43.7905 59.4997 43.7905C57.4772 43.7905 55.8311 42.1445 55.8311 40.1219ZM30.9389 53.4655C30.9389 55.488 29.2929 57.1341 27.2703 57.1341C25.2478 57.1341 23.6017 55.488 23.6017 53.4655C23.6017 51.4429 25.2478 49.7969 27.2703 49.7969C29.2929 49.7969 30.9389 51.4429 30.9389 53.4655Z" fill="#444444"/>
</g>
<defs>
<clipPath id="clip0_4_193">
<rect width="80" height="80" fill="white" transform="translate(0.00537109 0.984375)"/>
</clipPath>
</defs>
</svg>
