<svg width="164" height="184" viewBox="0 0 164 184" fill="none" xmlns="http://www.w3.org/2000/svg">
<path fill-rule="evenodd" clip-rule="evenodd" d="M91.6271 82.5395H109.13L71.6631 119.995L12 60.3203L71.6631 0.657227L109.13 38.1127H91.6271L71.6631 18.1486L29.4914 60.3203L71.6631 102.492L91.6271 82.5395ZM133.158 57.676C134.314 53.6695 138.011 50.7161 142.396 50.7161L142.384 50.6817C147.684 50.6817 152 54.9973 152 60.2974C152 65.5975 147.684 69.9131 142.384 69.9131C138 69.9131 134.303 66.9712 133.146 62.9532H94.7065L84.0147 73.6449H109.817C110.973 69.6384 114.67 66.685 119.055 66.685C124.355 66.685 128.67 71.0006 128.67 76.3007C128.67 81.6008 124.355 85.9164 119.055 85.9164C114.67 85.9164 110.973 82.9744 109.817 78.9565H78.7146L71.6631 86.008L45.964 60.3089L71.6631 34.6098L78.7146 41.6613H109.817C110.973 37.6548 114.67 34.7014 119.055 34.7014C124.355 34.7014 128.67 39.017 128.67 44.3171C128.67 49.6171 124.355 53.9328 119.055 53.9328C114.67 53.9328 110.973 50.9908 109.817 46.9728H84.0147L94.7179 57.676H133.158ZM123.37 44.3285C123.37 41.9475 121.436 40.0129 119.055 40.0129C116.674 40.0129 114.739 41.9475 114.739 44.3285C114.739 46.7095 116.674 48.6441 119.055 48.6441C121.436 48.6441 123.37 46.7095 123.37 44.3285ZM123.37 76.3236C123.37 73.9426 121.436 72.008 119.055 72.008C116.674 72.008 114.739 73.9426 114.739 76.3236C114.739 78.7046 116.674 80.6392 119.055 80.6392C121.436 80.6392 123.37 78.7046 123.37 76.3236ZM53.4734 60.3203L71.6746 78.5215L89.8757 60.3203L71.6746 42.1192L53.4734 60.3203ZM138.08 60.3089C138.08 62.6899 140.015 64.6245 142.396 64.6245C144.777 64.6245 146.711 62.6899 146.711 60.3089C146.711 57.9278 144.777 55.9933 142.396 55.9933C140.015 55.9933 138.08 57.9278 138.08 60.3089Z" fill="white"/>
<path d="M116.498 170.634H118.07L114.425 181.096C114.152 181.801 113.785 182.349 113.326 182.738C112.862 183.132 112.343 183.334 111.768 183.343L111.469 183.316L110.933 183.211V182.029L111.309 182.063C111.842 182.063 112.262 181.954 112.568 181.736C112.865 181.518 113.231 180.809 113.667 179.608L110.432 170.634H112.032L114.342 177.569L116.498 170.634Z" fill="white"/>
<path d="M103.338 171.858C104.08 170.931 105 170.467 106.099 170.467C107.996 170.467 108.954 171.54 108.972 173.688V179.663H107.498V173.674C107.488 172.361 106.865 171.705 105.626 171.705C105.13 171.705 104.68 171.844 104.277 172.122C103.896 172.387 103.59 172.751 103.358 173.215V179.663H101.891V170.634H103.275L103.338 171.858Z" fill="white"/>
<path d="M98.1136 179.691C98.0348 179.543 97.9606 179.197 97.891 178.655C97.1304 179.438 96.2562 179.83 95.2684 179.83C94.3826 179.83 93.6522 179.578 93.0771 179.072C92.5159 178.58 92.2354 177.95 92.2354 177.18C92.2354 176.243 92.5901 175.52 93.2997 175.009C94.0139 174.485 95.0203 174.223 96.3188 174.223H97.8771V173.465C97.8771 172.899 97.7101 172.456 97.3762 172.136C97.033 171.802 96.5438 171.635 95.9084 171.635C95.3472 171.635 94.8719 171.779 94.4823 172.067C94.1067 172.345 93.9142 172.681 93.9049 173.075H92.4232C92.4278 172.653 92.5832 172.238 92.8893 171.83C93.2093 171.413 93.6429 171.081 94.1901 170.835C94.7513 170.59 95.3542 170.467 95.9988 170.467C97.0377 170.467 97.8516 170.729 98.4406 171.253C99.0203 171.758 99.324 172.468 99.3519 173.382V177.576C99.3519 178.393 99.4585 179.063 99.6719 179.587V179.663H98.0788L98.1136 179.691ZM95.491 178.557C95.9872 178.557 96.458 178.43 96.9032 178.175C97.3577 177.91 97.6823 177.576 97.8771 177.173V175.239H96.611C94.6771 175.239 93.7101 175.812 93.7101 176.957C93.7101 177.458 93.8771 177.852 94.211 178.14C94.5449 178.418 94.9716 178.557 95.491 178.557Z" fill="white"/>
<path d="M90.4386 175.253C90.4386 176.621 90.1232 177.729 89.4925 178.578C88.8757 179.413 88.0293 179.83 86.9533 179.83C85.8635 179.83 84.9777 179.457 84.296 178.71V183.169H82.8281V170.634H84.1638L84.2473 171.712C84.9197 170.882 85.8125 170.467 86.9255 170.467C88.0107 170.467 88.8641 170.875 89.4855 171.691C90.1209 172.512 90.4386 173.651 90.4386 175.107V175.253ZM88.9638 175.072C88.9638 174.038 88.7412 173.219 88.296 172.616C87.8507 172.009 87.2386 171.705 86.4594 171.705C85.5087 171.705 84.7875 172.136 84.296 172.999V177.354C84.7783 178.216 85.5064 178.648 86.4803 178.648C87.2548 178.648 87.8577 178.346 88.289 177.743C88.7388 177.122 88.9638 176.231 88.9638 175.072Z" fill="white"/>
<path d="M69.1446 171.712C69.8588 170.882 70.7724 170.467 71.8855 170.467C73.133 170.467 73.9979 170.97 74.4802 171.976C75.1713 170.97 76.1405 170.467 77.3881 170.467C78.3388 170.467 79.0692 170.74 79.5794 171.288C80.0802 171.821 80.3539 172.591 80.4002 173.597V179.663H78.9255V173.695C78.9255 173.013 78.7747 172.514 78.4733 172.199C78.1533 171.87 77.6408 171.705 76.9359 171.705C76.3516 171.705 75.8623 171.884 75.4681 172.241C75.0646 172.598 74.8373 173.069 74.7863 173.653V179.663H73.3046V173.736C73.3046 172.382 72.6437 171.705 71.322 171.705C70.2831 171.705 69.5689 172.148 69.1794 173.034V179.663H67.7046V170.634H69.0959L69.1446 171.712Z" fill="white"/>
<path d="M57.4575 175.065C57.4575 174.193 57.6314 173.395 57.9793 172.672H57.9723C58.3062 171.976 58.7932 171.434 59.4332 171.044C60.0593 170.659 60.7665 170.467 61.5549 170.467C62.8164 170.467 63.8274 170.924 64.588 171.837C65.3114 172.704 65.6709 173.806 65.6662 175.142C65.6662 176.524 65.2859 177.653 64.5253 178.529C63.7601 179.42 62.7746 179.853 61.5688 179.83C60.2564 179.816 59.2337 179.355 58.501 178.446C57.8053 177.588 57.4575 176.461 57.4575 175.065ZM58.9393 175.253C58.9161 176.185 59.1248 176.967 59.5653 177.597C60.0477 178.298 60.7155 178.648 61.5688 178.648C62.4685 178.648 63.148 178.279 63.6071 177.542C64.0013 176.911 64.1984 176.085 64.1984 175.065C64.1984 174.142 63.9827 173.363 63.5514 172.728C63.0645 172.018 62.399 171.663 61.5549 171.663C60.6691 171.663 59.992 172.032 59.5236 172.769C59.1155 173.419 58.9207 174.247 58.9393 175.253Z" fill="white"/>
<path d="M55.8161 175.81C55.663 177.099 55.1877 178.092 54.39 178.787C53.5923 179.483 52.5326 179.831 51.2108 179.831C49.7778 179.831 48.6277 179.319 47.7604 178.294C46.8932 177.259 46.4595 175.877 46.4595 174.147V172.972C46.441 171.274 46.8885 169.902 47.8021 168.854C48.7111 167.805 49.8937 167.293 51.35 167.316C52.6485 167.316 53.685 167.68 54.4595 168.408C55.2387 169.127 55.6908 170.106 55.8161 171.344H54.2648C54.121 170.379 53.8126 169.672 53.3395 169.222C52.8711 168.786 52.2079 168.568 51.35 168.568C50.3065 168.568 49.4856 168.956 48.8874 169.73C48.2984 170.505 48.0039 171.599 48.0039 173.014V174.196C48.0039 175.546 48.2845 176.612 48.8456 177.396C49.4114 178.194 50.1998 178.593 51.2108 178.593C52.1152 178.593 52.8108 178.389 53.2978 177.981C53.794 177.554 54.1187 176.847 54.2717 175.859H55.8578L55.8161 175.81Z" fill="white"/>
<path d="M156.618 141.008L156.719 142.396C157.577 141.325 158.724 140.789 160.161 140.789C161.427 140.789 162.367 141.163 162.982 141.912C163.603 142.655 163.923 143.766 163.941 145.245V152.969H160.745V145.318C160.745 144.642 160.596 144.152 160.298 143.848C160.006 143.543 159.516 143.391 158.828 143.391C157.933 143.391 157.26 143.772 156.81 144.533V152.969H153.614V141.008H156.618Z" fill="white"/>
<path d="M140.388 146.879C140.388 145.692 140.616 144.636 141.073 143.711C141.529 142.779 142.187 142.061 143.045 141.556C143.903 141.045 144.899 140.789 146.031 140.789C147.65 140.789 148.968 141.282 149.984 142.268C151.007 143.254 151.576 144.596 151.692 146.295L151.719 147.107C151.719 148.946 151.205 150.419 150.176 151.526C149.153 152.634 147.781 153.188 146.058 153.188C144.336 153.188 142.96 152.637 141.931 151.536C140.903 150.428 140.388 148.924 140.388 147.025V146.879ZM143.584 147.107C143.584 148.246 143.797 149.116 144.223 149.719C144.649 150.315 145.261 150.613 146.058 150.613C146.831 150.613 147.434 150.318 147.866 149.728C148.304 149.131 148.523 148.182 148.523 146.879C148.523 145.765 148.304 144.904 147.866 144.295C147.434 143.68 146.822 143.373 146.031 143.373C145.252 143.373 144.649 143.677 144.223 144.286C143.797 144.895 143.584 145.835 143.584 147.107Z" fill="white"/>
<path d="M138.251 152.968H135.046V141.007H138.251V152.968ZM134.854 137.912C134.854 137.437 135.013 137.045 135.329 136.734C135.652 136.424 136.09 136.269 136.644 136.269C137.192 136.269 137.627 136.424 137.95 136.734C138.272 137.045 138.434 137.437 138.434 137.912C138.434 138.399 138.269 138.798 137.941 139.108C137.612 139.419 137.18 139.574 136.644 139.574C136.108 139.574 135.676 139.419 135.348 139.108C135.019 138.798 134.854 138.399 134.854 137.912Z" fill="white"/>
<path d="M131.049 138.067V141.007H133.094V143.354H131.049V149.325C131.049 149.763 131.134 150.08 131.305 150.275C131.475 150.463 131.801 150.558 132.282 150.558C132.635 150.558 132.945 150.533 133.213 150.485V152.904C132.592 153.093 131.95 153.187 131.286 153.187C129.046 153.187 127.902 152.058 127.853 149.8V143.354H126.109V141.007H127.853V138.067H131.049Z" fill="white"/>
<path d="M122.013 152.969C121.867 152.683 121.76 152.327 121.693 151.901C120.92 152.759 119.916 153.188 118.68 153.188C117.505 153.188 116.531 152.85 115.758 152.175C114.991 151.499 114.608 150.644 114.608 149.609C114.608 148.343 115.077 147.372 116.014 146.696C116.957 146.015 118.318 145.671 120.095 145.665H121.565V144.98C121.565 144.426 121.422 143.985 121.136 143.656C120.856 143.321 120.409 143.154 119.794 143.154C119.258 143.154 118.835 143.285 118.525 143.546C118.221 143.802 118.068 144.155 118.068 144.606H114.873C114.873 143.912 115.086 143.269 115.512 142.679C115.944 142.089 116.55 141.626 117.329 141.291C118.108 140.956 118.984 140.789 119.958 140.789C121.431 140.789 122.6 141.16 123.464 141.903C124.335 142.639 124.77 143.68 124.77 145.026V150.203C124.776 151.341 124.934 152.199 125.245 152.777V152.969H122.013ZM119.374 150.75C119.849 150.75 120.284 150.647 120.68 150.44C121.075 150.227 121.371 149.944 121.565 149.591V147.527H120.369C118.768 147.527 117.916 148.081 117.813 149.189L117.804 149.381C117.804 149.776 117.944 150.105 118.224 150.367C118.504 150.623 118.887 150.75 119.374 150.75Z" fill="white"/>
<path d="M113.558 144.003C113.126 143.948 112.743 143.921 112.408 143.921C111.203 143.921 110.411 144.329 110.034 145.144V152.969H106.838V141.008H109.861L109.952 142.433C110.591 141.337 111.477 140.789 112.609 140.789C112.962 140.789 113.294 140.838 113.604 140.935L113.558 144.003Z" fill="white"/>
<path d="M100.101 153.188C98.3478 153.188 96.9204 152.653 95.8186 151.581C94.7169 150.504 94.166 149.07 94.166 147.281V146.97C94.166 145.765 94.3973 144.691 94.8599 143.747C95.3286 142.798 95.986 142.067 96.8321 141.556C97.6843 141.045 98.6551 140.789 99.7447 140.789C101.382 140.789 102.669 141.306 103.607 142.341C104.55 143.37 105.022 144.831 105.022 146.724V148.029H97.4073C97.5108 148.809 97.8212 149.436 98.3386 149.91C98.856 150.379 99.5134 150.613 100.311 150.613C101.54 150.613 102.502 150.169 103.196 149.28L104.766 151.033C104.286 151.715 103.637 152.245 102.822 152.622C102.006 152.999 101.099 153.188 100.101 153.188ZM99.7356 143.373C99.1025 143.373 98.5882 143.589 98.1925 144.021C97.803 144.447 97.5504 145.056 97.4347 145.847H101.881V145.601C101.869 144.889 101.677 144.341 101.306 143.957C100.941 143.568 100.417 143.373 99.7356 143.373Z" fill="white"/>
<path d="M84.8613 141.008L84.9618 142.396C85.82 141.325 86.9674 140.789 88.4039 140.789C89.67 140.789 90.6105 141.163 91.2252 141.912C91.8461 142.655 92.1657 143.766 92.1839 145.245V152.969H88.9883V145.318C88.9883 144.642 88.8392 144.152 88.5409 143.848C88.2487 143.543 87.7587 143.391 87.0709 143.391C86.1761 143.391 85.5035 143.772 85.0531 144.533V152.969H81.8574V141.008H84.8613Z" fill="white"/>
<path d="M75.1838 153.188C73.4308 153.188 72.0034 152.653 70.9016 151.581C69.7999 150.504 69.249 149.07 69.249 147.281V146.97C69.249 145.765 69.4803 144.691 69.9429 143.747C70.4116 142.798 71.069 142.067 71.9151 141.556C72.7673 141.045 73.7382 140.789 74.8277 140.789C76.4651 140.789 77.7525 141.306 78.6899 142.341C79.6334 143.37 80.1051 144.831 80.1051 146.724V148.029H72.4903C72.5938 148.809 72.9042 149.436 73.4216 149.91C73.939 150.379 74.5964 150.613 75.3938 150.613C76.6234 150.613 77.5851 150.169 78.279 149.28L79.8495 151.033C79.3686 151.715 78.7203 152.245 77.9047 152.622C77.089 152.999 76.1821 153.188 75.1838 153.188ZM74.8186 143.373C74.1855 143.373 73.6712 143.589 73.2755 144.021C72.886 144.447 72.6334 145.056 72.5177 145.847H76.9642V145.601C76.9521 144.889 76.7603 144.341 76.389 143.957C76.0238 143.568 75.5003 143.373 74.8186 143.373Z" fill="white"/>
<path d="M67.2033 150.932C66.6068 151.651 65.7637 152.205 64.6742 152.594C63.5846 152.99 62.3763 153.188 61.0494 153.188C59.6555 153.188 58.432 152.883 57.3789 152.275C56.332 151.672 55.5224 150.792 54.9503 149.636C54.3781 148.473 54.0859 147.113 54.0737 145.555V144.459C54.0737 142.852 54.3446 141.461 54.8863 140.286C55.4281 139.111 56.2072 138.214 57.2237 137.593C58.2463 136.966 59.4424 136.652 60.812 136.652C62.7233 136.652 64.2146 137.109 65.2859 138.022C66.3633 138.929 67.0024 140.253 67.2033 141.994H63.9711C63.825 141.075 63.4994 140.402 62.9942 139.976C62.4889 139.544 61.795 139.328 60.9124 139.328C59.7863 139.328 58.9281 139.754 58.3376 140.606C57.7472 141.452 57.4489 142.709 57.4429 144.377V145.408C57.4429 147.095 57.7624 148.37 58.4016 149.234C59.0468 150.098 59.9872 150.531 61.2229 150.531C62.4707 150.531 63.3594 150.263 63.8889 149.727V146.961H60.8668V144.514H67.2033V150.932Z" fill="white"/>
<path d="M35.9829 146.897C35.9829 145.034 36.3999 143.552 37.2338 142.45C38.0738 141.343 39.2181 140.789 40.6668 140.789C41.8294 140.789 42.7912 141.224 43.552 142.094V135.995H46.7568V152.969H43.8716L43.7164 151.699C42.9251 152.692 41.9025 153.188 40.6486 153.188C39.2425 153.188 38.1133 152.634 37.2612 151.526C36.409 150.418 35.9829 148.875 35.9829 146.897ZM39.1786 147.134C39.1786 148.254 39.3733 149.113 39.7629 149.709C40.1525 150.306 40.7186 150.604 41.4612 150.604C42.4533 150.604 43.1503 150.187 43.552 149.353V144.633C43.1564 143.805 42.4686 143.391 41.4886 143.391C39.9486 143.391 39.1786 144.639 39.1786 147.134Z" fill="white"/>
<path d="M31.2656 152.969C31.1195 152.683 31.013 152.327 30.9461 151.901C30.173 152.759 29.1687 153.188 27.933 153.188C26.7582 153.188 25.7843 152.85 25.0113 152.175C24.2443 151.499 23.8608 150.644 23.8608 149.609C23.8608 148.343 24.3295 147.372 25.2669 146.696C26.2104 146.015 27.5708 145.671 29.3482 145.665H30.8182V144.98C30.8182 144.426 30.6752 143.985 30.3891 143.656C30.1091 143.321 29.6617 143.154 29.0469 143.154C28.5113 143.154 28.0882 143.285 27.7778 143.546C27.4734 143.802 27.3213 144.155 27.3213 144.606H24.1256C24.1256 143.912 24.3387 143.269 24.7648 142.679C25.1969 142.089 25.8026 141.626 26.5817 141.291C27.3608 140.956 28.2374 140.789 29.2113 140.789C30.6843 140.789 31.853 141.16 32.7174 141.903C33.5878 142.639 34.023 143.68 34.023 145.026V150.203C34.0291 151.341 34.1874 152.199 34.4978 152.777V152.969H31.2656ZM28.6269 150.75C29.1017 150.75 29.5369 150.647 29.9326 150.44C30.3282 150.227 30.6235 149.944 30.8182 149.591V147.527H29.6221C28.0213 147.527 27.1691 148.081 27.0656 149.189L27.0565 149.381C27.0565 149.776 27.1965 150.105 27.4765 150.367C27.7565 150.623 28.14 150.75 28.6269 150.75Z" fill="white"/>
<path d="M17.5979 153.188C15.8448 153.188 14.4174 152.653 13.3157 151.581C12.214 150.504 11.6631 149.07 11.6631 147.281V146.97C11.6631 145.765 11.8944 144.691 12.357 143.747C12.8257 142.798 13.4831 142.067 14.3292 141.556C15.1813 141.045 16.1522 140.789 17.2418 140.789C18.8792 140.789 20.1666 141.306 21.104 142.341C22.0474 143.37 22.5192 144.831 22.5192 146.724V148.029H14.9044C15.0079 148.809 15.3183 149.436 15.8357 149.91C16.3531 150.379 17.0105 150.613 17.8079 150.613C19.0374 150.613 19.9992 150.169 20.6931 149.28L22.2635 151.033C21.7827 151.715 21.1344 152.245 20.3187 152.622C19.5031 152.999 18.5961 153.188 17.5979 153.188ZM17.2327 143.373C16.5996 143.373 16.0853 143.589 15.6896 144.021C15.3 144.447 15.0474 145.056 14.9318 145.847H19.3783V145.601C19.3661 144.889 19.1744 144.341 18.8031 143.957C18.4379 143.568 17.9144 143.373 17.2327 143.373Z" fill="white"/>
<path d="M3.38256 150.303H10.4221V152.969H0.059082V136.881H3.38256V150.303Z" fill="white"/>
</svg>
